<?xml version="1.0" encoding="utf-8"?>
<!-- Svg Vector Icons : http://www.onlinewebfonts.com/icon -->
<!DOCTYPE svg PUBLIC "-//W3C//DTD SVG 1.1//EN" "http://www.w3.org/Graphics/SVG/1.1/DTD/svg11.dtd">
<svg version="1.1" xmlns="http://www.w3.org/2000/svg" xmlns:xlink="http://www.w3.org/1999/xlink" x="0px" y="0px" viewBox="0 0 1000 1000" enable-background="new 0 0 1000 1000" xml:space="preserve">
<metadata> Svg Vector Icons : http://www.onlinewebfonts.com/icon </metadata>
<g><path d="M394.9,80.1c-19.3,0-35.8,6.8-49.5,20.5s-20.5,30.2-20.5,49.5v490l-82.6-110.5c-14.9-19.7-34.4-29.5-58.5-29.5c-18.9,0-35.2,6.9-48.6,20.8c-13.5,13.9-20.2,30.3-20.2,49.2c0,15.7,4.7,29.7,14.2,42.1l210,280c13.9,18.6,32.5,27.9,55.8,27.9h392.6c8,0,15.2-2.5,21.6-7.4c6.4-4.9,10.5-11.2,12.3-18.9l50.3-201.3c8.7-35,13.1-70.4,13.1-106.1V467.9c0-14.9-5.1-27.9-15.3-38.9c-10.2-11-22.6-16.4-37.2-16.4c-14.6,0-26.9,5.2-37.2,15.3c-10.2,10.2-15.3,22.6-15.3,37.2h-17.5v-33.4c0-17.5-5.8-32.4-17.5-44.6c-11.7-12.2-26.2-18.3-43.8-18.3c-16.8,0-31.1,6-43.2,18.1c-12,12-18.1,26.4-18.1,43.2v35h-17.5v-49.2c0-20.1-6.7-37.3-20.2-51.7c-13.5-14.4-30.1-21.6-49.8-21.6c-19.3,0-35.8,6.8-49.5,20.5c-13.7,13.7-20.5,30.2-20.5,49.5v52.5h-17.5V153.4c0-20.1-6.7-37.3-20.2-51.7C431.2,87.3,414.6,80.1,394.9,80.1L394.9,80.1z M394.9,10.1c39,0,72.1,14.1,99.3,42.3c27.2,28.2,40.7,61.9,40.7,100.9v120.3c8-0.7,13.9-1.1,17.5-1.1c36.1,0,67.6,12.6,94.6,37.7c17.1-7.7,35.2-11.5,54.1-11.5c41.2,0,74.8,15.9,100.7,47.6c9.8-2.6,20.1-3.9,30.7-3.9c34.3,0,63.2,12.3,86.9,36.9c23.7,24.6,35.6,54,35.6,88.3v118.6c0,42.3-5.1,83.3-15.3,123.1l-50.3,201.3c-5.8,23.3-18.2,42.4-37.2,57.1c-18.9,14.7-40.5,22.1-64.5,22.1H395c-21.9,0-42.8-5-62.6-15.1c-19.9-10-36.4-23.6-49.5-40.7l-210-280C54.3,629.4,45,601.4,45,570c0-38.3,13.6-71.2,40.7-98.7c27.2-27.5,59.9-41.3,98.1-41.3c25.9,0,49.6,6.4,71.1,19.1V150c0-38.6,13.7-71.6,41-99s60.3-41,99-41L394.9,10.1z M464.9,780.1v-210h-17.5v210H464.9z M604.9,780.1v-210h-17.5v210H604.9z M744.9,780.1v-210h-17.5v210H744.9z"/></g>
</svg>